<?xml version="1.0" encoding="UTF-8" standalone="no"?>
<!DOCTYPE svg PUBLIC "-//W3C//DTD SVG 1.1//EN" "http://www.w3.org/Graphics/SVG/1.1/DTD/svg11.dtd">
<svg xmlns:dc="http://purl.org/dc/elements/1.1/" xmlns="http://www.w3.org/2000/svg" xmlns:xl="http://www.w3.org/1999/xlink" version="1.1" viewBox="0 0 25 25" width="25" height="25">
  <defs/>
  <metadata> Produced by OmniGraffle 7.9.4 
    <dc:date>2019-10-16 04:36:48 +0000</dc:date>
  </metadata>
  <g id="Canvas_1" stroke="none" fill="none" stroke-dasharray="none" stroke-opacity="1" fill-opacity="1">
    <title>Canvas 1</title>
    <rect fill="white" x="0" y="0" width="25" height="25"/>
    <g id="Canvas_1: Layer 1">
      <title>Layer 1</title>
      <g id="Group_2">
        <title>surface916</title>
        <g id="Graphic_3">
          <path d="M 10.003657 11593652e-11 C 9.669674 -.004129696 9.347879 .10838663 9.108971 .31219003 C 8.872501 .51811625 8.73842 .7962231 8.73842 1.0870674 L 1.2664555 1.0870674 C .8154561 1.0806984 .39858613 1.2866252 .17186761 1.6262975 C -.057289205 1.9638465 -.057289205 2.3841913 .17186761 2.7217403 C .39858613 3.0614126 .8154561 3.2673394 1.2664555 3.2609704 L 23.733545 3.2609704 C 24.184544 3.2673394 24.601414 3.0614126 24.828132 2.7217403 C 25.05729 2.3841913 25.05729 1.9638465 24.828132 1.6262975 C 24.601414 1.2866252 24.184544 1.0806984 23.733545 1.0870674 L 16.26158 1.0870674 C 16.26158 .7962231 16.127499 .51811625 15.891029 .31219003 C 15.65212 .10838663 15.330326 -.004129696 14.996343 11593652e-11 L 10.003657 11593652e-11 M 1.2664555 5.4348733 L 1.2664555 22.826097 C 1.2664555 24.027688 2.3829837 25 3.7627987 25 L 21.237201 25 C 22.617016 25 23.733545 24.027688 23.733545 22.826097 L 23.733545 5.4348733 L 1.2664555 5.4348733" fill="#b8b8b8"/>
        </g>
      </g>
    </g>
  </g>
</svg>
